<svg id="level-up" xmlns="http://www.w3.org/2000/svg" width="58.564" height="80" viewBox="0 0 58.564 80">
  <path id="Caminho_1" data-name="Caminho 1" d="M43.327,33.532V58.457H15.14V33.532H3.865L29.234,3.041,54.6,33.532Z" fill="#4cd62b"/>
  <path id="Caminho_2" data-name="Caminho 2" d="M55.639,36.321a2.977,2.977,0,0,1-2.269-1.027L29.281,7.161,5.2,35.294a3.022,3.022,0,0,1-4.119.4A2.714,2.714,0,0,1,.66,31.756L27.012.976a3.123,3.123,0,0,1,4.535,0L57.9,31.756a2.711,2.711,0,0,1-.416,3.936A3,3,0,0,1,55.639,36.321Z" fill="#4cd62b"/>
  <path id="Caminho_3" data-name="Caminho 3" d="M14.642,61.5a2.862,2.862,0,0,1-2.928-2.8V33.524a2.931,2.931,0,0,1,5.855,0V58.7A2.862,2.862,0,0,1,14.642,61.5Z" fill="#4cd62b"/>
  <path id="Caminho_4" data-name="Caminho 4" d="M43.919,61.5H14.642a2.8,2.8,0,1,1,0-5.595H43.919a2.8,2.8,0,1,1,0,5.595Z" fill="#4cd62b"/>
  <path id="Caminho_5" data-name="Caminho 5" d="M43.92,61.5a2.862,2.862,0,0,1-2.928-2.8V33.524a2.931,2.931,0,0,1,5.855,0V58.7A2.862,2.862,0,0,1,43.92,61.5Z" fill="#4cd62b"/>
  <path id="Caminho_6" data-name="Caminho 6" d="M14.643,36.321H2.929a2.8,2.8,0,1,1,0-5.595H14.643a2.8,2.8,0,1,1,0,5.595Z" fill="#4cd62b"/>
  <path id="Caminho_7" data-name="Caminho 7" d="M55.637,36.321H43.92a2.8,2.8,0,1,1,0-5.595H55.637a2.8,2.8,0,1,1,0,5.595Z" fill="#4cd62b"/>
  <path id="Caminho_8" data-name="Caminho 8" d="M34.872,39.2H23.6a2.862,2.862,0,0,1,0-5.723H34.872a2.862,2.862,0,0,1,0,5.723Z" fill="#fff"/>
  <path id="Caminho_9" data-name="Caminho 9" d="M29.234,44.922a2.838,2.838,0,0,1-2.819-2.862V30.619a2.819,2.819,0,1,1,5.637,0V42.061A2.838,2.838,0,0,1,29.234,44.922Z" fill="#fff"/>
  <rect id="Ret창ngulo_1" data-name="Ret창ngulo 1" width="35.177" height="5.591" rx="2.795" transform="translate(11.694 65.158)" fill="#4dd82b"/>
  <rect id="Ret창ngulo_2" data-name="Ret창ngulo 2" width="35.177" height="5.591" rx="2.795" transform="translate(11.694 74.409)" fill="#4dd82b"/>
</svg>
