<svg xmlns="http://www.w3.org/2000/svg" xmlns:xlink="http://www.w3.org/1999/xlink" width="79" height="43" viewBox="0 0 79 43">
  <defs>
    <clipPath id="clip-path">
      <rect id="Retângulo_3" data-name="Retângulo 3" width="40" height="40" transform="translate(212 125)" fill="#fff" stroke="#707070" stroke-width="1"/>
    </clipPath>
    <clipPath id="clip-path-2">
      <rect id="Retângulo_2" data-name="Retângulo 2" width="79" height="39" transform="translate(180 216)" fill="#fff" stroke="#707070" stroke-width="1"/>
    </clipPath>
  </defs>
  <g id="Grupo_1" data-name="Grupo 1" transform="translate(-191 -103)">
    <g id="Grupo_de_máscara_2" data-name="Grupo de máscara 2" transform="translate(-1 -19)" clip-path="url(#clip-path)">
      <g id="toamto" transform="translate(205.606 118.554)">
        <path id="Caminho_1" data-name="Caminho 1" d="M27.424,15.324a7.361,7.361,0,0,1,7.133-5.6h.74l-.053-.581a3.911,3.911,0,0,0-1.321-2.536l-.211-.159-.264.053a10.09,10.09,0,0,0-8.3,8.877c-10.2.528-17.49,7.556-17.49,17.12a18.718,18.718,0,0,0,5.971,13.686l.317.264H38.838l.317-.264A18.718,18.718,0,0,0,45.125,32.5C45.125,22.827,37.728,15.746,27.424,15.324ZM38.045,44.28H14.8A16.522,16.522,0,0,1,9.828,32.919h1.8v2.008a.528.528,0,0,0,1.057,0V32.919h3.17v2.008a.528.528,0,0,0,1.057,0V32.919h3.7v2.008a.528.528,0,0,0,1.057,0V32.919h4.227v3.752a.528.528,0,0,0,1.057,0V32.919h4.227v2.008a.528.528,0,1,0,1.057,0V32.919h3.7v2.008a.528.528,0,1,0,1.057,0V32.919h3.17v2.008a.528.528,0,1,0,1.057,0V32.919h1.8A16.891,16.891,0,0,1,38.045,44.28Zm2.642-12.365H9.828c.264-8.454,7.186-14.478,16.592-14.478s16.328,6.077,16.592,14.478Z"/>
        <path id="Caminho_2" data-name="Caminho 2" d="M28.639,26.1H24.148a.555.555,0,0,0-.476.264.48.48,0,0,0,0,.528l2.219,3.857a.56.56,0,0,0,.951,0L29.062,26.9a.48.48,0,0,0,0-.528A.418.418,0,0,0,28.639,26.1Z"/>
      </g>
    </g>
    <g id="Grupo_de_máscara_1" data-name="Grupo de máscara 1" transform="translate(11 -113)" clip-path="url(#clip-path-2)">
      <path id="barbell-svgrepo-com" d="M77.34,37.6H76.072v-4.73A3.075,3.075,0,0,0,73,29.8H70.093a3.074,3.074,0,0,0-2.878-2.009H64.252a3.075,3.075,0,0,0-3.072,3.072V37.6H17.819v-6.74a3.075,3.075,0,0,0-3.072-3.072H11.784A3.074,3.074,0,0,0,8.906,29.8H6a3.075,3.075,0,0,0-3.072,3.072V37.6H1.66a1.66,1.66,0,0,0,0,3.32H2.927v5.2A3.075,3.075,0,0,0,6,49.2H8.906a3.074,3.074,0,0,0,2.878,2.01h2.963a3.075,3.075,0,0,0,3.072-3.072V40.923H61.18v7.214a3.075,3.075,0,0,0,3.072,3.072h2.962a3.074,3.074,0,0,0,2.878-2.01H73a3.075,3.075,0,0,0,3.072-3.072v-5.2H77.34a1.66,1.66,0,1,0,0-3.32ZM6.247,33.121H8.713V45.879H6.247Zm5.785,14.768V31.111H14.5V47.888H12.033Zm54.933,0H64.5V31.111h2.465V47.889Zm3.32-2.01V33.121h2.466V45.879Z" transform="translate(180 196)"/>
    </g>
  </g>
</svg>
